<svg xmlns="http://www.w3.org/2000/svg" xmlns:xlink="http://www.w3.org/1999/xlink" viewBox="0 0 150 150"><title>TpT Symbol</title><defs><path id="a" d="M149.3 149.3V0H0v149.3z"/></defs><g fill-rule="evenodd" fill="none"><mask id="b" fill="#fff"><use xlink:href="#a"/></mask><path fill="#09A56C" mask="url(#b)" d="M132.38 61.026c-2.22-.05-4.52.188-6.67.774-1.45.398-2.86.973-4.18 1.7-3.53 1.952-6.74 5.068-7.88 9.043-.07.244-.14.476-.2.693-.06.38-.13.646-.15.91-.16 1.624-1.8 12.11-5.74 19.514-1.59 2.975-3.37 5.902-5.48 8.66-2.132 2.73-4.474 5.36-7.384 7.57-1.435 1.08-3.08 2.19-4.91 2.82-1.816.65-3.863.84-5.758.56-1.905-.24-3.604-.94-5.236-1.54-1.275-.47-2.424-.88-3.536-1.02 0 0-.15-.01-.225-.01-1.426-.06-2.867.5-4.52 1.11-1.633.59-3.367 1.21-5.273 1.46-1.894.27-3.94.09-5.758-.57-1.83-.63-3.44-1.65-4.875-2.73-2.91-2.21-5.253-4.85-7.39-7.58-2.105-2.75-3.922-5.66-5.47-8.653-3.24-6.26-4.71-12.61-5.742-19.514-.058-.26-.096-.53-.154-.91l-.2-.694c-1.867-6.857-9.566-10.8-16.14-11.458-.415-.042-1.895-.053-2.543-.056-.173 0-.306-.14-.306-.314v-1.806c0-.223.166-.415.385-.447 6.353-.918 12.285.618 17.066 4.128.132.096.265.19.39.295l1.415 1.176c.292.29.58.574.864.858.118-.538.253-1.084.404-1.63.222-.827.393-1.248.67-2.096.547-1.433 1.227-2.818 2.077-4.093 1.69-2.556 4.106-4.594 6.69-5.728 2.58-1.163 5.205-1.516 7.556-1.516 5.168 0 10.775 3.505 12.58 4.907.23.18.355.45.355.74v2.193c0 .326-.333.545-.627.404-3.178-1.52-7.667-3.84-12.148-3.47-1.85.158-3.736.603-5.43 1.492-6.123 3.205-7.387 11.33-7.276 17.506.017.95.043 1.27.043 1.27.34 5.417 1.79 11.185 4.206 16.797 1.233 2.86 2.725 5.682 4.486 8.365 1.763 2.67 3.84 5.23 6.234 7.3 2.426 2.09 5.253 3.41 8.298 3.05 1.522-.17 3.08-.68 4.696-1.25 1.293-.45 2.827-1.09 4.47-1.23 0 0 .067-.01.11-.01 2.065-.09 3.96.62 5.533 1.17 1.616.56 3.138 1.16 4.66 1.33 3.046.36 5.908-1.04 8.334-3.14 2.396-2.07 4.472-4.63 6.235-7.29 1.765-2.69 3.255-5.51 4.485-8.37 2.42-5.613 3.7-12.504 4.06-16.813.49-5.865-.12-12.963-4.83-17.08-3.797-3.328-8.67-3.713-13.392-2.533-1.92.48-5.033 1.573-7.972 2.97-.242.116-.52-.058-.52-.326v-2.29c0-.337.167-.652.45-.83 2.61-1.648 7.78-4.36 13.096-4.802 2.86-.238 5.788.217 8.368 1.38 2.58 1.134 5 3.172 6.69 5.727.85 1.275 1.53 2.66 2.08 4.093.27.847.45 1.27.67 2.095.15.548.28 1.094.4 1.632.29-.284.57-.57.87-.86 1.2-1.003 2.41-1.942 3.79-2.72 2.33-1.317 4.88-2.233 7.51-2.71 1.32-.24 2.65-.368 3.99-.382.67-.007 1.34.03 2 .066.55.03 1.36.147 1.74.204.13.02.22.12.22.39v1.865c0 .142-.11.254-.26.25M33.03 48.358c1.595-.11 3.17 1.698 3.518 4.04.35 2.34-.66 4.33-2.256 4.44s-3.17-1.7-3.52-4.04c-.35-2.342.662-4.33 2.257-4.44m36.4-1.585c.007-.327.247-.584.538-.584h9.494c.393 0 .656.458.49.86-.412.987-1.665 4.175-2.023 7.993-.332 3.535-.073 6.852.07 7.735.06.374-.198.713-.536.71l-5.08-.038c-.22-.002-.415-.153-.496-.382-.422-1.197-1.708-4.986-2.12-7.873-.318-2.24-.398-5.943-.34-8.42m43.322 5.548c.35-2.34 1.93-4.15 3.52-4.04 1.6.11 2.61 2.1 2.26 4.44-.35 2.342-1.93 4.15-3.52 4.04-1.6-.11-2.61-2.098-2.26-4.44M74.65 0C33.422 0 0 33.422 0 74.65c0 41.23 33.422 74.65 74.65 74.65 41.23 0 74.65-33.42 74.65-74.65C149.3 33.422 115.88 0 74.65 0"/></g></svg>
